<?xml version="1.0" standalone="no"?>
<!DOCTYPE svg PUBLIC "-//W3C//DTD SVG 20010904//EN"
 "http://www.w3.org/TR/2001/REC-SVG-20010904/DTD/svg10.dtd">
<svg version="1.0" xmlns="http://www.w3.org/2000/svg"
 width="187.000000pt" height="183.000000pt" viewBox="0 0 187.000000 183.000000"
 preserveAspectRatio="xMidYMid meet">

<g transform="translate(0.000000,183.000000) scale(0.100000,-0.100000)"
fill="#000000" stroke="none">
<path d="M830 1726 c-116 -48 -120 -51 -120 -102 0 -43 2 -46 23 -40 68 20
129 26 182 20 74 -8 54 -16 -85 -34 -52 -6 -138 -18 -190 -26 -115 -17 -197
-29 -312 -45 l-88 -12 0 -44 c0 -37 4 -45 25 -53 24 -9 51 -21 183 -81 34 -16
64 -29 67 -29 2 0 32 -13 67 -29 153 -70 186 -81 213 -71 35 13 35 13 35 -13
0 -20 15 -31 100 -70 55 -26 106 -47 114 -47 8 0 16 11 18 27 3 23 22 36 170
112 l168 86 0 48 c0 26 -4 47 -10 47 -5 0 -43 16 -84 35 -41 19 -78 35 -81 35
-3 0 -5 -12 -5 -28 0 -24 -10 -32 -97 -77 -53 -28 -100 -51 -105 -53 -4 -2 -8
15 -8 37 0 23 -2 41 -4 41 -3 0 -42 -9 -88 -20 -46 -11 -105 -20 -132 -20 -50
0 -166 27 -166 39 0 4 55 14 123 23 225 32 552 79 575 84 19 4 22 11 22 48 l0
43 -70 32 c-39 17 -72 31 -74 31 -3 0 -33 13 -68 29 -67 31 -235 101 -240 101
-2 -1 -28 -11 -58 -24z"/>
<path d="M1614 1212 c-73 -40 -103 -58 -211 -129 -113 -75 -155 -116 -166
-162 -9 -35 6 -56 53 -71 36 -12 45 -11 76 3 l35 17 -30 -55 c-17 -31 -31 -69
-31 -85 0 -23 7 -30 40 -44 22 -9 52 -16 66 -16 26 0 26 -1 22 -52 -3 -29 -14
-74 -26 -99 -20 -43 -85 -119 -102 -119 -4 0 -5 22 -2 49 4 49 4 49 -36 70
-53 27 -66 26 -107 -5 -51 -39 -85 -115 -85 -191 0 -69 11 -88 71 -119 41 -21
138 -16 192 10 53 26 178 145 223 213 55 83 96 195 98 268 1 76 -15 110 -65
132 l-38 16 20 28 c10 15 19 29 19 32 0 3 22 43 48 89 53 91 72 138 72 175 0
19 -10 28 -46 43 -54 24 -51 24 -90 2z"/>
<path d="M302 1131 c-18 -12 -44 -21 -58 -21 -131 0 -140 -190 -15 -318 44
-45 46 -62 5 -62 -14 0 -37 -12 -51 -26 -22 -22 -25 -32 -21 -69 3 -24 15 -57
28 -75 23 -32 20 -45 -14 -52 -27 -5 -40 -31 -32 -64 24 -94 302 -254 444
-254 60 0 139 36 172 77 33 42 21 124 -27 178 -35 40 -130 100 -238 151 -61
28 -117 59 -124 68 -17 20 -10 20 37 0 61 -26 149 -21 216 12 79 38 96 63 96
134 0 55 2 58 30 70 25 10 30 18 30 45 0 30 -4 34 -70 64 -39 17 -74 31 -79
31 -5 0 -37 19 -72 43 -124 84 -199 103 -257 68z m148 -147 c9 -18 16 -67 18
-132 4 -103 4 -103 -17 -90 -38 23 -55 76 -59 183 l-4 99 23 -15 c13 -9 31
-29 39 -45z m-5 -587 c112 -59 159 -96 141 -114 -14 -14 -194 85 -236 129 -44
47 -15 42 95 -15z"/>
</g>
</svg>
